<svg width="80" height="16" fill="none" xmlns="http://www.w3.org/2000/svg"><path fill-rule="evenodd" clip-rule="evenodd" d="M8.182 2.873l1.59 3.22 3.553.517a.203.203 0 01.114.345l-2.573 2.508.608 3.54a.203.203 0 01-.294.213L8 11.546l-3.179 1.67a.203.203 0 01-.294-.213l.607-3.54-2.573-2.508a.203.203 0 01.113-.345l3.555-.517 1.589-3.22c.074-.15.29-.15.364 0zm16 0l1.59 3.22 3.553.517a.203.203 0 01.114.345l-2.573 2.508.608 3.54a.203.203 0 01-.294.213L24 11.546l-3.179 1.67a.203.203 0 01-.294-.213l.607-3.54-2.573-2.508a.203.203 0 01.113-.345l3.555-.517 1.589-3.22c.074-.15.29-.15.364 0zm16 0l1.59 3.22 3.553.517a.203.203 0 01.114.345l-2.573 2.508.608 3.54a.203.203 0 01-.294.213L40 11.546l-3.179 1.67a.203.203 0 01-.294-.213l.608-3.54-2.574-2.508a.203.203 0 01.113-.345l3.555-.517 1.589-3.22c.074-.15.29-.15.364 0zm16 0l1.59 3.22 3.553.517a.203.203 0 01.114.345l-2.573 2.508.608 3.54a.203.203 0 01-.294.213L56 11.546l-3.179 1.67a.203.203 0 01-.294-.213l.608-3.54-2.574-2.508a.203.203 0 01.113-.345l3.555-.517 1.589-3.22c.074-.15.29-.15.364 0zm16 0l1.59 3.22 3.553.517a.203.203 0 01.114.345l-2.573 2.508.608 3.54a.203.203 0 01-.294.213L72 11.546l-3.179 1.67a.203.203 0 01-.294-.213l.608-3.54-2.574-2.508a.203.203 0 01.113-.345l3.555-.517 1.589-3.22c.074-.15.29-.15.364 0z" fill="#FF9332"/></svg>